<?xml version="1.0" encoding="UTF-8"?>
<svg id="Layer_1" data-name="Layer 1" xmlns="http://www.w3.org/2000/svg" viewBox="0 0 83.85 84.1">
  <defs>
    <style>
      .cls-1 {
        fill: #fff;
      }
    </style>
  </defs>
  <path class="cls-1" d="M21.76,73.16c.77.83,1.78,1.3,2.9,1.48h34.48c2.53-.36,4.08-2.2,4.25-4.72v-22.15c1.06-5.46,8.88-5.06,9.3.59v22.22c-.38,6.87-5.51,12.39-12.3,13.34-12.3.23-24.66.23-36.96,0-6.78-.97-11.87-6.46-12.23-13.34v-22.61c.86-5.44,8.55-5.45,9.3.06v21.89c.09,1.24.43,2.31,1.28,3.23Z"/>
  <path class="cls-1" d="M50.83,3.22c.36.29.71.61,1.06.92,3.94,3.57,7.72,7.37,11.59,11.02,5.25,4.96,10.5,9.91,15.73,14.89,1.44,1.37,4.11,3.32,4.53,5.29.94,4.34-3.98,7.43-7.46,4.76l-31.28-29.61c-1.73-1.49-4.39-1.5-6.11,0L7.55,40.13c-4.55,3.26-9.94-2.36-6.42-6.75L33.25,3c5.28-4.08,12.41-3.99,17.58.22Z"/>
</svg>